<svg width="16" height="16" viewBox="0 0 16 16" fill="none" xmlns="http://www.w3.org/2000/svg">
<path id="Vector" d="M14.0795 2.6151L8.07891 0.114857C7.89613 0.0390305 7.70018 0 7.50229 0C7.30441 0 7.10846 0.0390305 6.92568 0.114857L0.92509 2.6151C0.365661 2.84637 0 3.3933 0 3.99961C0 10.2033 3.57847 14.4913 6.92255 15.8851C7.29134 16.0383 7.707 16.0383 8.07579 15.8851C10.7542 14.7694 15.0015 10.9159 15.0015 3.99961C15.0015 3.3933 14.6358 2.84637 14.0795 2.6151ZM7.50386 13.9475L7.50073 2.04004L12.9981 4.33089C12.895 9.06261 10.4323 12.4911 7.50386 13.9475Z" fill="white"/>
</svg>
