<svg width="16" height="15" viewBox="0 0 16 15" fill="none" xmlns="http://www.w3.org/2000/svg">
<path fill-rule="evenodd" clip-rule="evenodd" d="M5.8 0C2.59676 0 0 2.59676 0 5.8C0 13 9.6 14.4 9.6 14.4V11.6H10.2C13.4032 11.6 16 9.00324 16 5.8C16 2.59676 13.4032 0 10.2 0H5.8ZM8 7C8.55228 7 9 6.55228 9 6C9 5.44772 8.55228 5 8 5C7.44772 5 7 5.44772 7 6C7 6.55228 7.44772 7 8 7ZM12.2 6C12.2 6.55228 11.7523 7 11.2 7C10.6477 7 10.2 6.55228 10.2 6C10.2 5.44772 10.6477 5 11.2 5C11.7523 5 12.2 5.44772 12.2 6ZM4.8 7C5.35228 7 5.8 6.55228 5.8 6C5.8 5.44772 5.35228 5 4.8 5C4.24772 5 3.8 5.44772 3.8 6C3.8 6.55228 4.24772 7 4.8 7Z" fill="#1D2123"/>
</svg>
