<svg width="16" height="16" viewBox="0 0 16 16" fill="none" xmlns="http://www.w3.org/2000/svg">
<g id="&#240;&#159;&#166;&#134; icon &#34;clock&#34;">
<path id="Vector" d="M7.99992 1.33334C6.68138 1.33334 5.39245 1.72434 4.29612 2.45688C3.19979 3.18942 2.34531 4.23061 1.84072 5.44879C1.33614 6.66696 1.20412 8.00741 1.46135 9.30061C1.71859 10.5938 2.35353 11.7817 3.28588 12.7141C4.21823 13.6464 5.40611 14.2813 6.69932 14.5386C7.99253 14.7958 9.33297 14.6638 10.5511 14.1592C11.7693 13.6546 12.8105 12.8001 13.5431 11.7038C14.2756 10.6075 14.6666 9.31855 14.6666 8.00001C14.6666 7.12453 14.4941 6.25762 14.1591 5.44879C13.8241 4.63995 13.333 3.90502 12.714 3.28596C12.0949 2.66691 11.36 2.17584 10.5511 1.84081C9.74231 1.50578 8.8754 1.33334 7.99992 1.33334ZM10.6666 8.66668H7.99992C7.82311 8.66668 7.65354 8.59644 7.52852 8.47141C7.40349 8.34639 7.33325 8.17682 7.33325 8.00001V5.33334C7.33325 5.15653 7.40349 4.98696 7.52852 4.86194C7.65354 4.73691 7.82311 4.66668 7.99992 4.66668C8.17673 4.66668 8.3463 4.73691 8.47133 4.86194C8.59635 4.98696 8.66659 5.15653 8.66659 5.33334V7.33334H10.6666C10.8434 7.33334 11.013 7.40358 11.138 7.52861C11.263 7.65363 11.3333 7.8232 11.3333 8.00001C11.3333 8.17682 11.263 8.34639 11.138 8.47141C11.013 8.59644 10.8434 8.66668 10.6666 8.66668Z" fill="#1D2123"/>
</g>
</svg>
