<svg width="16" height="12" viewBox="0 0 16 12" fill="none" xmlns="http://www.w3.org/2000/svg">
<g clip-path="url(#clip0_107_1867)">
<path fill-rule="evenodd" clip-rule="evenodd" d="M13.5133 1.96684C13.5133 1.96684 15.2887 5.19824 15.2887 9.18486C15.2887 9.18486 14.2407 10.98 11.5161 11.0667C11.5161 11.0667 11.0722 10.5343 10.7024 10.0639C12.3174 9.60581 12.9339 8.59058 12.9339 8.59058C12.4284 8.92487 11.9476 9.1601 11.5161 9.32105C8.8598 10.4414 5.90388 10.058 3.82292 8.88772C3.81685 8.88366 3.79472 8.87089 3.76208 8.85206C3.65993 8.79312 3.45489 8.67481 3.31744 8.5782C3.31744 8.5782 3.90922 9.56867 5.47497 10.0391C5.10511 10.5096 4.64895 11.0667 4.64895 11.0667C1.92429 10.98 0.888672 9.18486 0.888672 9.18486C0.888672 5.19824 2.66401 1.96684 2.66401 1.96684C4.43936 0.629709 6.1284 0.666851 6.1284 0.666851L6.25169 0.815421C4.03251 1.45923 3.00922 2.43731 3.00922 2.43731C3.00922 2.43731 3.28045 2.28874 3.73662 2.07827C6.57744 0.825142 10.0176 0.825433 12.9462 2.43731C12.9462 2.43731 11.9722 1.50875 9.87634 0.864945L10.0489 0.666851C10.0489 0.666851 11.738 0.629709 13.5133 1.96684ZM10.2832 8.03345C10.9859 8.03345 11.5407 7.4144 11.5407 6.65917C11.5407 5.90394 10.9859 5.2849 10.2832 5.2849C9.58045 5.2849 9.02566 5.90394 9.02566 6.65917C9.02566 7.4144 9.59278 8.03345 10.2832 8.03345ZM4.52566 6.65917C4.52566 5.90394 5.08045 5.2849 5.78319 5.2849C6.48593 5.2849 7.05306 5.90394 7.04073 6.65917C7.04073 7.4144 6.48593 8.03345 5.78319 8.03345C5.09278 8.03345 4.52566 7.4144 4.52566 6.65917Z" fill="#95A0A7"/>
</g>
<defs>
<clipPath id="clip0_107_1867">
<rect width="16" height="12" fill="white"/>
</clipPath>
</defs>
</svg>
