<svg width="32" height="32" viewBox="0 0 32 32" fill="none" xmlns="http://www.w3.org/2000/svg">
<g id="Group 41">
<circle id="Ellipse 8" cx="16" cy="16" r="16" fill="#F2F4F5"/>
<g id="&#240;&#159;&#166;&#134; icon &#34;Alternate Sign Out&#34;">
<path id="Vector" d="M23.7786 16.5308L18.445 21.78C17.9687 22.2486 17.1433 21.9206 17.1433 21.2488V18.2493H12.8256C12.4034 18.2493 12.0637 17.915 12.0637 17.4994V14.4999C12.0637 14.0844 12.4034 13.75 12.8256 13.75H17.1433V10.7505C17.1433 10.0819 17.9656 9.75071 18.445 10.2194L23.7786 15.4685C24.0738 15.7622 24.0738 16.2371 23.7786 16.5308ZM14.0955 21.6237V20.3739C14.0955 20.1677 13.9241 19.999 13.7146 19.999H11.0478C10.4858 19.999 10.0318 19.5522 10.0318 18.9992V13.0002C10.0318 12.4471 10.4858 12.0003 11.0478 12.0003H13.7146C13.9241 12.0003 14.0955 11.8316 14.0955 11.6254V10.3756C14.0955 10.1694 13.9241 10.0007 13.7146 10.0007H11.0478C9.36515 10.0007 8 11.3442 8 13.0002V18.9992C8 20.6551 9.36515 21.9987 11.0478 21.9987H13.7146C13.9241 21.9987 14.0955 21.83 14.0955 21.6237Z" fill="#1D2123"/>
</g>
</g>
</svg>
