<svg width="42" height="42" viewBox="0 0 42 42" fill="none" xmlns="http://www.w3.org/2000/svg">
<g id="Group 49">
<rect id="Rectangle 19" width="42" height="42" rx="21" fill="#DFDFDF"/>
<g id="&#240;&#159;&#166;&#134; icon &#34;person&#34;">
<g id="Group">
<path id="Vector" d="M21 19C21.7911 19 22.5645 18.7654 23.2223 18.3259C23.8801 17.8864 24.3928 17.2616 24.6955 16.5307C24.9983 15.7998 25.0775 14.9956 24.9231 14.2196C24.7688 13.4437 24.3878 12.731 23.8284 12.1716C23.269 11.6122 22.5563 11.2312 21.7804 11.0769C21.0044 10.9225 20.2002 11.0017 19.4693 11.3045C18.7384 11.6072 18.1136 12.1199 17.6741 12.7777C17.2346 13.4355 17 14.2089 17 15C17 16.0609 17.4214 17.0783 18.1716 17.8284C18.9217 18.5786 19.9391 19 21 19Z" fill="#95A0A7"/>
<path id="Vector_2" d="M27 29C27.2652 29 27.5196 28.8946 27.7071 28.7071C27.8946 28.5196 28 28.2652 28 28C28 26.1435 27.2625 24.363 25.9497 23.0503C24.637 21.7375 22.8565 21 21 21C19.1435 21 17.363 21.7375 16.0503 23.0503C14.7375 24.363 14 26.1435 14 28C14 28.2652 14.1054 28.5196 14.2929 28.7071C14.4804 28.8946 14.7348 29 15 29H27Z" fill="#95A0A7"/>
</g>
</g>
</g>
</svg>
