<svg width="18" height="18" viewBox="0 0 18 18" fill="none" xmlns="http://www.w3.org/2000/svg">
<g id="&#240;&#159;&#166;&#134; icon &#34;question mark circle&#34;">
<path id="Vector" d="M9 1.5C7.51664 1.5 6.0666 1.93987 4.83323 2.76398C3.59986 3.58809 2.63856 4.75943 2.07091 6.12987C1.50325 7.50032 1.35472 9.00832 1.64411 10.4632C1.9335 11.918 2.64781 13.2544 3.6967 14.3033C4.7456 15.3522 6.08197 16.0665 7.53683 16.3559C8.99168 16.6453 10.4997 16.4968 11.8701 15.9291C13.2406 15.3614 14.4119 14.4001 15.236 13.1668C16.0601 11.9334 16.5 10.4834 16.5 9C16.5 8.01509 16.306 7.03982 15.9291 6.12987C15.5522 5.21993 14.9997 4.39314 14.3033 3.6967C13.6069 3.00026 12.7801 2.44781 11.8701 2.0709C10.9602 1.69399 9.98492 1.5 9 1.5ZM9 13.5C8.85167 13.5 8.70666 13.456 8.58333 13.3736C8.45999 13.2912 8.36386 13.1741 8.30709 13.037C8.25033 12.9 8.23548 12.7492 8.26441 12.6037C8.29335 12.4582 8.36478 12.3246 8.46967 12.2197C8.57456 12.1148 8.7082 12.0434 8.85369 12.0144C8.99917 11.9855 9.14997 12.0003 9.28702 12.0571C9.42406 12.1139 9.54119 12.21 9.62361 12.3333C9.70602 12.4567 9.75 12.6017 9.75 12.75C9.75 12.9489 9.67099 13.1397 9.53033 13.2803C9.38968 13.421 9.19892 13.5 9 13.5ZM9.75 9.63V10.5C9.75 10.6989 9.67099 10.8897 9.53033 11.0303C9.38968 11.171 9.19892 11.25 9 11.25C8.80109 11.25 8.61033 11.171 8.46967 11.0303C8.32902 10.8897 8.25 10.6989 8.25 10.5V9C8.25 8.80109 8.32902 8.61032 8.46967 8.46967C8.61033 8.32902 8.80109 8.25 9 8.25C9.22251 8.25 9.44001 8.18402 9.62502 8.0604C9.81003 7.93679 9.95422 7.76109 10.0394 7.55552C10.1245 7.34995 10.1468 7.12375 10.1034 6.90552C10.06 6.68729 9.95283 6.48684 9.7955 6.3295C9.63816 6.17217 9.43771 6.06502 9.21948 6.02162C9.00125 5.97821 8.77505 6.00049 8.56948 6.08564C8.36392 6.17078 8.18822 6.31498 8.0646 6.49998C7.94098 6.68499 7.875 6.9025 7.875 7.125C7.875 7.32391 7.79599 7.51468 7.65533 7.65533C7.51468 7.79598 7.32392 7.875 7.125 7.875C6.92609 7.875 6.73533 7.79598 6.59467 7.65533C6.45402 7.51468 6.375 7.32391 6.375 7.125C6.37304 6.63773 6.50675 6.15952 6.76115 5.74393C7.01556 5.32834 7.38062 4.99176 7.81547 4.77188C8.25031 4.552 8.73778 4.45749 9.22329 4.49895C9.7088 4.5404 10.1732 4.71617 10.5645 5.00659C10.9557 5.297 11.2585 5.69059 11.4387 6.1433C11.619 6.59601 11.6697 7.08995 11.5852 7.56984C11.5006 8.04973 11.2842 8.49662 10.9601 8.86047C10.636 9.22432 10.217 9.49077 9.75 9.63Z" fill="#1D2123"/>
</g>
</svg>
