<svg width="14" height="14" viewBox="0 0 14 14" fill="none" xmlns="http://www.w3.org/2000/svg">
<g id="&#240;&#159;&#166;&#134; icon &#34;rocket&#34;">
<path id="Vector" d="M12.4301 0C10.1011 0 6.97605 1.59783 4.87747 4.34489H3.13777C1.88069 4.34489 1.16019 5.28317 0.664117 6.27543L0 7.60356H1.56785H3.13777L4.76711 9.23289L6.39644 10.8622V12.4321V14L7.72456 13.336C8.71683 12.8398 9.65511 12.1193 9.65511 10.8622V9.12253C12.4022 7.02395 14 3.89889 14 1.56992V0H12.4301ZM9.65511 3.25867C10.255 3.25867 10.7413 3.74497 10.7413 4.34489C10.7413 4.94481 10.255 5.43111 9.65511 5.43111C9.05519 5.43111 8.56889 4.94481 8.56889 4.34489C8.56889 3.74497 9.05519 3.25867 9.65511 3.25867ZM2.59466 9.776L2.05155 10.3191C1.26708 11.1036 0.965326 13.0347 0.965326 13.0347C0.965326 13.0347 2.80973 12.8196 3.68088 11.9484L4.22399 11.4053L2.59466 9.776Z" fill="#8D00D0"/>
</g>
</svg>
