<svg width="16" height="16" viewBox="0 0 16 16" fill="none" xmlns="http://www.w3.org/2000/svg">
<g id="&#240;&#159;&#166;&#134; emoji &#34;top with upwards arrow above&#34;">
<path id="Vector" d="M11.4199 4.83767L8.33408 0.290475C8.0661 -0.103482 7.64054 -0.0954696 7.38725 0.306945L4.54275 4.8212C4.28946 5.22362 4.46218 5.55303 4.9278 5.55303H5.76157V7.12263C5.76157 7.61407 6.16042 8.01292 6.65187 8.01292H9.32276C9.81465 8.01292 10.2131 7.61407 10.2131 7.12263V5.55347H11.058C11.524 5.55347 11.6874 5.23163 11.4199 4.83767ZM1.59987 10.4946H0.614751C0.180731 10.4946 0 10.1777 0 9.87098C0 9.55492 0.226136 9.24821 0.614751 9.24821H3.93957C4.32863 9.24821 4.55432 9.55492 4.55432 9.87098C4.55432 10.1781 4.37359 10.4946 3.93957 10.4946H2.95535V15.0303C2.95535 15.4825 2.66644 15.7354 2.27783 15.7354C1.88921 15.7354 1.60031 15.4825 1.60031 15.0303L1.59987 10.4946ZM4.6024 12.4644C4.6024 10.585 5.86707 9.13871 7.71043 9.13871C9.52619 9.13871 10.8189 10.6304 10.8189 12.4644C10.8189 14.3345 9.56314 15.7901 7.71043 15.7901C5.87597 15.7901 4.6024 14.3345 4.6024 12.4644ZM9.40912 12.4644C9.40912 11.3711 8.83977 10.3856 7.71043 10.3856C6.58109 10.3856 6.01174 11.3711 6.01174 12.4644C6.01174 13.5666 6.56328 14.5424 7.71043 14.5424C8.85803 14.5424 9.40912 13.5666 9.40912 12.4644ZM11.3825 9.95199C11.3825 9.52732 11.6358 9.24777 12.088 9.24777H13.6866C15.0153 9.24777 16 10.1145 16 11.4072C16 12.7262 14.9793 13.5488 13.7413 13.5488H12.7384V15.0307C12.7384 15.483 12.4495 15.7358 12.0613 15.7358C11.6723 15.7358 11.3829 15.483 11.3829 15.0307L11.3825 9.95199ZM12.7384 12.3558H13.6603C14.2288 12.3558 14.5902 11.94 14.5902 11.3983C14.5902 10.8556 14.2288 10.4403 13.6603 10.4403H12.7384V12.3558Z" fill="#6F2CFF"/>
</g>
</svg>
