<svg width="16" height="11" viewBox="0 0 16 11" fill="none" xmlns="http://www.w3.org/2000/svg">
<g clip-path="url(#clip0_107_1865)">
<path fill-rule="evenodd" clip-rule="evenodd" d="M15.6333 1.46525C15.744 1.10125 15.6333 0.833252 15.1033 0.833252H13.3533C12.908 0.833252 12.7027 1.06459 12.5913 1.31992C12.5913 1.31992 11.7013 3.45059 10.4407 4.83458C10.0327 5.23592 9.84733 5.36325 9.62467 5.36325C9.51333 5.36325 9.346 5.23592 9.346 4.87125V1.46525C9.346 1.02792 9.22333 0.833252 8.85267 0.833252H6.10067C5.82267 0.833252 5.65533 1.03592 5.65533 1.22859C5.65533 1.64259 6.286 1.73859 6.35067 2.90392V5.43592C6.35067 5.99125 6.24867 6.09192 6.026 6.09192C5.43267 6.09192 3.98933 3.95125 3.13267 1.50192C2.96667 1.02525 2.79867 0.833252 2.35133 0.833252H0.6C0.1 0.833252 0 1.06459 0 1.31992C0 1.77459 0.593333 4.03325 2.76333 7.02059C4.21 9.06059 6.24667 10.1666 8.102 10.1666C9.21467 10.1666 9.352 9.92125 9.352 9.49792V7.95592C9.352 7.46458 9.45733 7.36659 9.81 7.36659C10.07 7.36659 10.5147 7.49458 11.5533 8.47792C12.74 9.64392 12.9353 10.1666 13.6033 10.1666H15.3533C15.8533 10.1666 16.104 9.92125 15.96 9.43592C15.8013 8.95325 15.2347 8.25258 14.4833 7.42125C14.0753 6.94792 13.4633 6.43792 13.2773 6.18259C13.018 5.85525 13.092 5.70925 13.2773 5.41792C13.2773 5.41792 15.4113 2.46725 15.6333 1.46525Z" fill="#95A0A7"/>
</g>
<defs>
<clipPath id="clip0_107_1865">
<rect width="16" height="11" fill="white"/>
</clipPath>
</defs>
</svg>
