<svg width="393" height="1277" viewBox="0 0 393 1277" fill="none" xmlns="http://www.w3.org/2000/svg">
<g opacity="0.3" filter="url(#filter0_f_1_923)">
<path d="M45.3986 1167C70.4719 1167 90.7973 957.49 90.7973 699.047C90.7973 440.607 70.4719 231.098 45.3986 231.098C20.3259 231.098 0 440.607 0 699.047C0 957.49 20.3259 1167 45.3986 1167Z" fill="#399AD1"/>
<path d="M106.38 1027.31C131.453 1027.31 151.778 817.805 151.778 559.363C151.778 300.92 131.453 91.4127 106.38 91.4127C81.3072 91.4127 60.9812 300.92 60.9812 559.363C60.9812 817.805 81.3072 1027.31 106.38 1027.31Z" fill="#A939D1"/>
<path d="M171.432 1167C196.506 1167 216.831 957.49 216.831 699.047C216.831 440.607 196.506 231.098 171.432 231.098C146.36 231.098 126.034 440.607 126.034 699.047C126.034 957.49 146.36 1167 171.432 1167Z" fill="#D26739"/>
<path d="M226.989 1027.31C252.062 1027.31 272.388 817.805 272.388 559.363C272.388 300.92 252.062 91.4127 226.989 91.4127C201.917 91.4127 181.591 300.92 181.591 559.363C181.591 817.805 201.917 1027.31 226.989 1027.31Z" fill="#3C39D1"/>
<path d="M275.779 1167C300.851 1167 321.177 957.49 321.177 699.047C321.177 440.607 300.851 231.098 275.779 231.098C250.706 231.098 230.38 440.607 230.38 699.047C230.38 957.49 250.706 1167 275.779 1167Z" fill="#D2395E"/>
<path d="M347.601 1027.31C372.674 1027.31 393 817.805 393 559.363C393 300.92 372.674 91.4127 347.601 91.4127C322.528 91.4127 302.203 300.92 302.203 559.363C302.203 817.805 322.528 1027.31 347.601 1027.31Z" fill="#D2CC39"/>
</g>
<defs>
<filter id="filter0_f_1_923" x="-109.43" y="-18.0171" width="611.86" height="1294.45" filterUnits="userSpaceOnUse" color-interpolation-filters="sRGB">
<feFlood flood-opacity="0" result="BackgroundImageFix"/>
<feBlend mode="normal" in="SourceGraphic" in2="BackgroundImageFix" result="shape"/>
<feGaussianBlur stdDeviation="54.7149" result="effect1_foregroundBlur_1_923"/>
</filter>
</defs>
</svg>
