<svg width="922" height="617" viewBox="0 0 922 617" fill="none" xmlns="http://www.w3.org/2000/svg">
<g opacity="0.5" filter="url(#filter0_f_107_1652)">
<path d="M190.563 506.922C235.372 506.922 271.696 429.605 271.696 334.23C271.696 238.856 235.372 161.539 190.563 161.539C145.755 161.539 109.43 238.856 109.43 334.23C109.43 429.605 145.755 506.922 190.563 506.922Z" fill="#399AD1"/>
<path d="M299.544 455.372C344.353 455.372 380.677 378.056 380.677 282.681C380.677 187.306 344.353 109.99 299.544 109.99C254.736 109.99 218.411 187.306 218.411 282.681C218.411 378.056 254.736 455.372 299.544 455.372Z" fill="#A939D1"/>
<path d="M415.801 506.922C460.61 506.922 496.934 429.605 496.934 334.23C496.934 238.856 460.61 161.539 415.801 161.539C370.993 161.539 334.668 238.856 334.668 334.23C334.668 429.605 370.993 506.922 415.801 506.922Z" fill="#D26739"/>
<path d="M515.088 455.372C559.897 455.372 596.221 378.056 596.221 282.681C596.221 187.306 559.897 109.99 515.088 109.99C470.28 109.99 433.955 187.306 433.955 282.681C433.955 378.056 470.28 455.372 515.088 455.372Z" fill="#3C39D1"/>
<path d="M602.281 506.922C647.089 506.922 683.414 429.605 683.414 334.23C683.414 238.856 647.089 161.539 602.281 161.539C557.472 161.539 521.148 238.856 521.148 334.23C521.148 429.605 557.472 506.922 602.281 506.922Z" fill="#D2395E"/>
<path d="M730.637 455.372C775.445 455.372 811.77 378.056 811.77 282.681C811.77 187.306 775.445 109.99 730.637 109.99C685.828 109.99 649.504 187.306 649.504 282.681C649.504 378.056 685.828 455.372 730.637 455.372Z" fill="#D2CC39"/>
</g>
<defs>
<filter id="filter0_f_107_1652" x="0.000190735" y="0.560188" width="921.2" height="615.791" filterUnits="userSpaceOnUse" color-interpolation-filters="sRGB">
<feFlood flood-opacity="0" result="BackgroundImageFix"/>
<feBlend mode="normal" in="SourceGraphic" in2="BackgroundImageFix" result="shape"/>
<feGaussianBlur stdDeviation="54.7149" result="effect1_foregroundBlur_107_1652"/>
</filter>
</defs>
</svg>
