<svg width="160" height="40" viewBox="0 0 160 40" fill="none" xmlns="http://www.w3.org/2000/svg">
<g clip-path="url(#clip0_1_167)">
<path d="M41.8605 14.5671H57.9666V17.5654H51.6249V34.4676H48.149V17.5654H41.8339L41.8605 14.5671ZM57.2766 20.0596H60.2485V22.8457H60.3015C60.4077 22.4477 60.5934 22.0763 60.8587 21.7047C61.1241 21.3332 61.4425 20.9883 61.8406 20.6964C62.212 20.378 62.6366 20.1392 63.1142 19.9535C63.5652 19.7678 64.0428 19.6616 64.5204 19.6616C64.8919 19.6616 65.1572 19.6882 65.2899 19.6882C65.4226 19.7147 65.5818 19.7412 65.7145 19.7412V22.7927C65.5022 22.7396 65.2634 22.7131 65.0246 22.6865C64.7858 22.66 64.5735 22.6335 64.3347 22.6335C63.804 22.6335 63.2999 22.7396 62.8223 22.9519C62.3447 23.1641 61.9467 23.4825 61.5752 23.8805C61.2302 24.3051 60.9383 24.8092 60.7261 25.4195C60.5138 26.0298 60.4077 26.7462 60.4077 27.5422V34.388H57.2236L57.2766 20.0596ZM80.3081 34.4676H77.1771V32.451H77.1241C76.7261 33.1939 76.1423 33.7512 75.3729 34.2023C74.6034 34.6534 73.8074 34.8656 73.0113 34.8656C71.1274 34.8656 69.7477 34.4146 68.8985 33.4593C68.0495 32.5306 67.6249 31.0978 67.6249 29.2138V20.0596H70.809V28.8954C70.809 30.1691 71.0478 31.0713 71.552 31.5754C72.0296 32.1061 72.7194 32.3714 73.5951 32.3714C74.2585 32.3714 74.8157 32.2653 75.2667 32.053C75.7178 31.8407 76.0893 31.5754 76.3546 31.2305C76.6465 30.8855 76.8322 30.461 76.9649 29.9834C77.0975 29.5057 77.1506 28.975 77.1506 28.4178V20.0596H80.3343V34.4676H80.3081ZM85.721 29.8507C85.8269 30.7794 86.1723 31.4162 86.7821 31.8142C87.3926 32.1857 88.1353 32.3714 88.9847 32.3714C89.2768 32.3714 89.6215 32.3449 89.9932 32.2918C90.3642 32.2387 90.7359 32.1591 91.0543 32.0265C91.399 31.8938 91.6649 31.7081 91.8766 31.4427C92.0891 31.1774 92.195 30.859 92.1688 30.461C92.1425 30.063 92.0095 29.718 91.7174 29.4527C91.4261 29.1873 91.0806 29.0016 90.6563 28.8158C90.232 28.6566 89.7274 28.524 89.1701 28.4178C88.6129 28.3117 88.0557 28.179 87.4722 28.0464C86.8888 27.9137 86.3045 27.7545 85.7473 27.5688C85.19 27.383 84.7124 27.1442 84.2619 26.7993C83.8368 26.4809 83.4659 26.0829 83.2271 25.5787C82.9612 25.0745 82.829 24.4908 82.829 23.7479C82.829 22.9519 83.0145 22.3151 83.4125 21.7844C83.7843 21.2536 84.2882 20.8291 84.8716 20.5107C85.4559 20.1923 86.119 19.9535 86.8354 19.8208C87.5518 19.6882 88.242 19.6351 88.8788 19.6351C89.6215 19.6351 90.3379 19.7147 91.001 19.8739C91.6649 20.0331 92.3017 20.2719 92.8318 20.6434C93.3891 20.9883 93.8404 21.4659 94.1851 22.0232C94.5568 22.5804 94.7693 23.2703 94.8752 24.0663H91.5582C91.399 23.2968 91.0543 22.7927 90.5234 22.5273C89.9662 22.262 89.3564 22.1293 88.64 22.1293C88.4275 22.1293 88.1353 22.1559 87.844 22.1824C87.5256 22.2355 87.2597 22.2885 86.9683 22.3947C86.7025 22.5008 86.4637 22.66 86.2782 22.8457C86.0927 23.0315 85.9861 23.2968 85.9861 23.6152C85.9861 24.0132 86.119 24.3051 86.3841 24.5439C86.6499 24.7827 86.9946 24.9684 87.446 25.1541C87.8702 25.3133 88.3741 25.446 88.9313 25.5522C89.4886 25.6583 90.0728 25.791 90.6563 25.9237C91.2398 26.0564 91.797 26.2156 92.3542 26.4013C92.9114 26.587 93.4161 26.8258 93.8404 27.1708C94.2647 27.4892 94.6364 27.8872 94.9015 28.3648C95.1674 28.8424 95.2995 29.4527 95.2995 30.1426C95.2995 30.9917 95.114 31.7081 94.716 32.3183C94.318 32.9021 93.8141 33.4062 93.2036 33.7777C92.593 34.1492 91.8766 34.4146 91.1339 34.6003C90.3642 34.7595 89.6215 34.8656 88.8788 34.8656C87.9761 34.8656 87.1276 34.7595 86.3578 34.5472C85.5881 34.335 84.8987 34.0166 84.3415 33.6185C83.7843 33.1939 83.3329 32.6898 83.0145 32.053C82.6961 31.4427 82.5106 30.6998 82.4836 29.8242H85.6947V29.8507H85.721ZM96.2022 20.0596H98.6165V15.7081H101.801V20.0331H104.666V22.3947H101.801V30.0895C101.801 30.4345 101.827 30.6998 101.854 30.9651C101.88 31.2039 101.96 31.4162 102.039 31.5754C102.145 31.7346 102.304 31.8673 102.491 31.9469C102.702 32.0265 102.968 32.0795 103.339 32.0795C103.552 32.0795 103.791 32.0795 104.003 32.053C104.215 32.0265 104.454 31.9999 104.666 31.9469V34.4146C104.322 34.4676 103.976 34.4942 103.631 34.5207C103.287 34.5738 102.968 34.5738 102.597 34.5738C101.747 34.5738 101.084 34.4942 100.58 34.335C100.076 34.1758 99.6776 33.937 99.3863 33.6451C99.0941 33.3266 98.9087 32.9551 98.802 32.5041C98.6961 32.053 98.6428 31.4958 98.6165 30.9121V22.4212H96.2022V20.0066V20.0596ZM106.895 20.0596H109.894V22.0232H109.946C110.398 21.174 111.008 20.5903 111.804 20.2188C112.6 19.8474 113.449 19.6616 114.404 19.6616C115.545 19.6616 116.527 19.8474 117.376 20.2719C118.225 20.6699 118.915 21.2006 119.472 21.917C120.029 22.6069 120.454 23.4295 120.72 24.3581C120.985 25.2868 121.144 26.2952 121.144 27.33C121.144 28.3117 121.011 29.2404 120.772 30.1426C120.507 31.0447 120.135 31.8673 119.631 32.5571C119.128 33.247 118.491 33.8043 117.695 34.2288C116.899 34.6534 115.996 34.8656 114.935 34.8656C114.484 34.8656 114.006 34.8126 113.555 34.733C113.104 34.6534 112.653 34.5207 112.228 34.335C111.804 34.1492 111.406 33.9104 111.061 33.6185C110.69 33.3266 110.398 32.9817 110.159 32.6102H110.105V39.8009H106.921V20.0596H106.895ZM118.013 27.2769C118.013 26.6401 117.934 26.0033 117.747 25.3929C117.588 24.7827 117.323 24.252 116.978 23.7744C116.633 23.2968 116.209 22.9253 115.731 22.6335C115.227 22.3416 114.643 22.2089 114.006 22.2089C112.68 22.2089 111.671 22.66 110.981 23.5887C110.318 24.5173 109.973 25.7645 109.973 27.3034C109.973 28.0464 110.053 28.7097 110.238 29.32C110.424 29.9303 110.663 30.461 111.034 30.9121C111.379 31.3631 111.804 31.7081 112.308 31.9734C112.812 32.2387 113.369 32.3714 114.033 32.3714C114.776 32.3714 115.359 32.2122 115.864 31.9203C116.368 31.6285 116.766 31.2305 117.11 30.7794C117.429 30.3018 117.668 29.7711 117.801 29.1608C117.934 28.524 118.013 27.9137 118.013 27.2769ZM123.612 14.5671H126.796V17.5654H123.612V14.5671ZM123.612 20.0596H126.796V34.4676H123.612V20.0596ZM129.635 14.5671H132.819V34.4676H129.635V14.5671ZM142.531 34.8656C141.389 34.8656 140.354 34.6799 139.452 34.2819C138.55 33.8839 137.807 33.3797 137.17 32.7163C136.56 32.053 136.083 31.2305 135.764 30.3018C135.446 29.373 135.26 28.3382 135.26 27.2504C135.26 26.1625 135.419 25.1541 135.764 24.2255C136.083 23.2968 136.56 22.5008 137.17 21.8109C137.781 21.1475 138.55 20.6168 139.452 20.2454C140.354 19.8739 141.389 19.6616 142.531 19.6616C143.671 19.6616 144.706 19.8474 145.608 20.2454C146.511 20.6168 147.253 21.1475 147.89 21.8109C148.501 22.4743 148.978 23.2968 149.297 24.2255C149.615 25.1541 149.801 26.1625 149.801 27.2504C149.801 28.3648 149.641 29.373 149.297 30.3018C148.951 31.2305 148.501 32.0265 147.89 32.7163C147.28 33.3797 146.511 33.9104 145.608 34.2819C144.706 34.6534 143.698 34.8656 142.531 34.8656ZM142.531 32.3449C143.22 32.3449 143.857 32.1857 144.361 31.8938C144.892 31.6019 145.29 31.2039 145.635 30.7263C145.98 30.2487 146.218 29.6915 146.378 29.1077C146.537 28.4974 146.617 27.8872 146.617 27.2504C146.617 26.6401 146.537 26.0298 146.378 25.4195C146.218 24.8092 145.98 24.2785 145.635 23.8009C145.29 23.3233 144.865 22.9519 144.361 22.66C143.83 22.3681 143.22 22.2089 142.531 22.2089C141.84 22.2089 141.204 22.3681 140.7 22.66C140.169 22.9519 139.771 23.3499 139.426 23.8009C139.081 24.2785 138.842 24.8092 138.683 25.4195C138.523 26.0298 138.444 26.6401 138.444 27.2504C138.444 27.8872 138.523 28.4974 138.683 29.1077C138.842 29.718 139.081 30.2487 139.426 30.7263C139.771 31.2039 140.195 31.6019 140.7 31.8938C141.23 32.2122 141.84 32.3449 142.531 32.3449ZM150.756 20.0596H153.17V15.7081H156.354V20.0331H159.22V22.3947H156.354V30.0895C156.354 30.4345 156.381 30.6998 156.408 30.9651C156.434 31.2039 156.513 31.4162 156.593 31.5754C156.7 31.7346 156.859 31.8673 157.044 31.9469C157.257 32.0265 157.522 32.0795 157.894 32.0795C158.105 32.0795 158.344 32.0795 158.557 32.053C158.769 32.0265 159.008 31.9999 159.22 31.9469V34.4146C158.875 34.4676 158.531 34.4942 158.185 34.5207C157.84 34.5738 157.522 34.5738 157.15 34.5738C156.302 34.5738 155.638 34.4942 155.134 34.335C154.63 34.1758 154.232 33.937 153.94 33.6451C153.648 33.3266 153.462 32.9551 153.356 32.5041C153.25 32.053 153.197 31.4958 153.17 30.9121V22.4212H150.756V20.0066V20.0596Z" fill="black"/>
<path d="M38.1457 14.5671H23.5785L19.0943 0.716339L14.5835 14.5671L0.0163574 14.5406L11.7974 23.111L7.28667 36.9618L19.0677 28.3913L30.8488 36.9618L26.3646 23.111L38.1457 14.5671Z" fill="#00B67A"/>
<path d="M27.3728 26.242L26.3645 23.111L19.0942 28.3912L27.3728 26.242Z" fill="#005128"/>
</g>
<defs>
<clipPath id="clip0_1_167">
<rect width="160" height="39.801" fill="white"/>
</clipPath>
</defs>
</svg>
